<svg width="722" height="740" viewBox="0 0 722 740" fill="none" xmlns="http://www.w3.org/2000/svg">
<g clip-path="url(#clip0_2377_472)">
<g clip-path="url(#clip1_2377_472)">
<path d="M399.593 704.172L388.276 735.264" stroke="#394E4A" stroke-width="4"/>
<path d="M328.947 705.48L312.403 734.136" stroke="#394E4A" stroke-width="4"/>
<path d="M257.872 706.766L236.605 732.113" stroke="#394E4A" stroke-width="4"/>
<path d="M186.269 709.047L160.923 730.315" stroke="#394E4A" stroke-width="4"/>
<path d="M114.05 712.324L85.3961 728.868" stroke="#394E4A" stroke-width="4"/>
<path d="M41.1614 714.52L10.0701 725.836" stroke="#394E4A" stroke-width="4"/>
<path d="M680.409 702.984L691.725 734.077" stroke="#394E4A" stroke-width="4"/>
<path d="M610.218 702.242L615.964 734.827" stroke="#394E4A" stroke-width="4"/>
<path d="M540.112 702.543V735.632" stroke="#394E4A" stroke-width="4"/>
<path d="M469.94 702.844L464.194 735.429" stroke="#394E4A" stroke-width="4"/>
<path d="M474.044 646.27L462.728 677.362" stroke="#394E4A" stroke-width="4"/>
<path d="M403.388 647.578L386.844 676.233" stroke="#394E4A" stroke-width="4"/>
<path d="M332.311 648.859L311.044 674.206" stroke="#394E4A" stroke-width="4"/>
<path d="M260.708 651.145L235.362 672.413" stroke="#394E4A" stroke-width="4"/>
<path d="M188.499 654.418L159.846 670.962" stroke="#394E4A" stroke-width="4"/>
<path d="M115.612 656.617L84.5203 667.934" stroke="#394E4A" stroke-width="4"/>
<path d="M41.9889 659.797L9.40484 665.543" stroke="#394E4A" stroke-width="4"/>
<path d="M684.658 644.34L690.403 676.925" stroke="#394E4A" stroke-width="4"/>
<path d="M614.551 644.641V677.73" stroke="#394E4A" stroke-width="4"/>
<path d="M544.391 644.941L538.646 677.527" stroke="#394E4A" stroke-width="4"/>
<path d="M548.483 588.367L537.167 619.46" stroke="#394E4A" stroke-width="4"/>
<path d="M477.839 589.672L461.295 618.327" stroke="#394E4A" stroke-width="4"/>
<path d="M406.763 590.957L385.495 616.304" stroke="#394E4A" stroke-width="4"/>
<path d="M335.159 593.238L309.813 614.507" stroke="#394E4A" stroke-width="4"/>
<path d="M262.94 596.516L234.286 613.06" stroke="#394E4A" stroke-width="4"/>
<path d="M190.051 598.711L158.96 610.028" stroke="#394E4A" stroke-width="4"/>
<path d="M116.429 601.895L83.845 607.64" stroke="#394E4A" stroke-width="4"/>
<path d="M689 586.738V619.826" stroke="#394E4A" stroke-width="4"/>
<path d="M618.83 587.039L613.085 619.624" stroke="#394E4A" stroke-width="4"/>
<path d="M0.710709 601.539H33.7973" stroke="#394E4A" stroke-width="4"/>
<path d="M622.934 530.461L611.618 561.553" stroke="#394E4A" stroke-width="4"/>
<path d="M552.278 531.77L535.735 560.425" stroke="#394E4A" stroke-width="4"/>
<path d="M481.202 533.051L459.934 558.398" stroke="#394E4A" stroke-width="4"/>
<path d="M409.598 535.332L384.252 556.601" stroke="#394E4A" stroke-width="4"/>
<path d="M337.39 538.613L308.736 555.157" stroke="#394E4A" stroke-width="4"/>
<path d="M264.501 540.805L233.41 552.121" stroke="#394E4A" stroke-width="4"/>
<path d="M190.879 543.988L158.295 549.734" stroke="#394E4A" stroke-width="4"/>
<path d="M693.281 529.133L687.536 561.718" stroke="#394E4A" stroke-width="4"/>
<path d="M75.1509 543.637H108.237" stroke="#394E4A" stroke-width="4"/>
<path d="M1.38657 540.562L33.9704 546.308" stroke="#394E4A" stroke-width="4"/>
<path d="M697.373 472.559L686.057 503.651" stroke="#394E4A" stroke-width="4"/>
<path d="M626.727 473.867L610.184 502.522" stroke="#394E4A" stroke-width="4"/>
<path d="M555.653 475.148L534.385 500.495" stroke="#394E4A" stroke-width="4"/>
<path d="M484.049 477.43L458.704 498.698" stroke="#394E4A" stroke-width="4"/>
<path d="M411.831 480.711L383.177 497.255" stroke="#394E4A" stroke-width="4"/>
<path d="M338.942 482.902L307.85 494.219" stroke="#394E4A" stroke-width="4"/>
<path d="M265.32 486.082L232.736 491.828" stroke="#394E4A" stroke-width="4"/>
<path d="M149.59 485.734H182.676" stroke="#394E4A" stroke-width="4"/>
<path d="M75.8263 482.656L108.41 488.402" stroke="#394E4A" stroke-width="4"/>
<path d="M2.79996 479.633L33.8912 490.95" stroke="#394E4A" stroke-width="4"/>
<path d="M701.168 415.961L684.625 444.616" stroke="#394E4A" stroke-width="4"/>
<path d="M630.092 417.246L608.824 442.593" stroke="#394E4A" stroke-width="4"/>
<path d="M558.488 419.527L533.143 440.796" stroke="#394E4A" stroke-width="4"/>
<path d="M486.28 422.805L457.626 439.349" stroke="#394E4A" stroke-width="4"/>
<path d="M413.391 425L382.3 436.317" stroke="#394E4A" stroke-width="4"/>
<path d="M339.769 428.18L307.185 433.925" stroke="#394E4A" stroke-width="4"/>
<path d="M4.9012 419.789L33.5551 436.333" stroke="#394E4A" stroke-width="4"/>
<path d="M224.041 427.832H257.128" stroke="#394E4A" stroke-width="4"/>
<path d="M150.277 424.754L182.861 430.5" stroke="#394E4A" stroke-width="4"/>
<path d="M77.2396 421.73L108.331 433.047" stroke="#394E4A" stroke-width="4"/>
<path d="M704.542 359.34L683.274 384.687" stroke="#394E4A" stroke-width="4"/>
<path d="M632.94 361.625L607.594 382.894" stroke="#394E4A" stroke-width="4"/>
<path d="M560.721 364.898L532.067 381.442" stroke="#394E4A" stroke-width="4"/>
<path d="M487.832 367.094L456.741 378.411" stroke="#394E4A" stroke-width="4"/>
<path d="M414.21 370.277L381.626 376.023" stroke="#394E4A" stroke-width="4"/>
<path d="M79.3409 361.887L107.995 378.431" stroke="#394E4A" stroke-width="4"/>
<path d="M7.62929 358.961L32.9751 380.229" stroke="#394E4A" stroke-width="4"/>
<path d="M298.48 369.926H331.567" stroke="#394E4A" stroke-width="4"/>
<path d="M224.715 366.848L257.299 372.593" stroke="#394E4A" stroke-width="4"/>
<path d="M151.68 363.824L182.771 375.141" stroke="#394E4A" stroke-width="4"/>
<path d="M707.379 303.719L682.033 324.987" stroke="#394E4A" stroke-width="4"/>
<path d="M635.17 306.996L606.516 323.54" stroke="#394E4A" stroke-width="4"/>
<path d="M562.281 309.191L531.19 320.508" stroke="#394E4A" stroke-width="4"/>
<path d="M488.659 312.375L456.075 318.121" stroke="#394E4A" stroke-width="4"/>
<path d="M153.791 303.984L182.445 320.528" stroke="#394E4A" stroke-width="4"/>
<path d="M82.0695 301.055L107.415 322.323" stroke="#394E4A" stroke-width="4"/>
<path d="M10.9049 299.199L32.1726 324.546" stroke="#394E4A" stroke-width="4"/>
<path d="M372.931 312.02H406.018" stroke="#394E4A" stroke-width="4"/>
<path d="M299.167 308.945L331.751 314.691" stroke="#394E4A" stroke-width="4"/>
<path d="M226.13 305.922L257.222 317.239" stroke="#394E4A" stroke-width="4"/>
<path d="M709.609 249.09L680.956 265.634" stroke="#394E4A" stroke-width="4"/>
<path d="M636.722 251.289L605.631 262.606" stroke="#394E4A" stroke-width="4"/>
<path d="M563.099 254.469L530.514 260.214" stroke="#394E4A" stroke-width="4"/>
<path d="M228.232 246.078L256.886 262.622" stroke="#394E4A" stroke-width="4"/>
<path d="M156.52 243.148L181.865 264.417" stroke="#394E4A" stroke-width="4"/>
<path d="M85.345 241.297L106.613 266.644" stroke="#394E4A" stroke-width="4"/>
<path d="M14.6174 240.512L31.1607 269.167" stroke="#394E4A" stroke-width="4"/>
<path d="M447.37 254.117H480.457" stroke="#394E4A" stroke-width="4"/>
<path d="M373.607 251.039L406.192 256.785" stroke="#394E4A" stroke-width="4"/>
<path d="M300.57 248.016L331.661 259.332" stroke="#394E4A" stroke-width="4"/>
<path d="M711.172 193.383L680.081 204.7" stroke="#394E4A" stroke-width="4"/>
<path d="M637.55 196.562L604.966 202.308" stroke="#394E4A" stroke-width="4"/>
<path d="M302.682 188.172L331.335 204.716" stroke="#394E4A" stroke-width="4"/>
<path d="M230.96 185.246L256.305 206.515" stroke="#394E4A" stroke-width="4"/>
<path d="M159.785 183.395L181.052 208.741" stroke="#394E4A" stroke-width="4"/>
<path d="M89.0571 182.605L105.6 211.261" stroke="#394E4A" stroke-width="4"/>
<path d="M18.6677 181.848L29.984 212.94" stroke="#394E4A" stroke-width="4"/>
<path d="M521.822 196.211H554.908" stroke="#394E4A" stroke-width="4"/>
<path d="M448.057 193.137L480.641 198.882" stroke="#394E4A" stroke-width="4"/>
<path d="M375.021 190.113L406.112 201.43" stroke="#394E4A" stroke-width="4"/>
<path d="M711.989 138.66L679.405 144.406" stroke="#394E4A" stroke-width="4"/>
<path d="M377.121 130.27L405.774 146.814" stroke="#394E4A" stroke-width="4"/>
<path d="M305.409 127.34L330.755 148.608" stroke="#394E4A" stroke-width="4"/>
<path d="M234.234 125.488L255.502 150.835" stroke="#394E4A" stroke-width="4"/>
<path d="M163.507 124.703L180.051 153.358" stroke="#394E4A" stroke-width="4"/>
<path d="M93.1074 123.945L104.424 155.038" stroke="#394E4A" stroke-width="4"/>
<path d="M22.9176 123.203L28.663 155.788" stroke="#394E4A" stroke-width="4"/>
<path d="M596.261 138.309H629.347" stroke="#394E4A" stroke-width="4"/>
<path d="M522.496 135.234L555.08 140.98" stroke="#394E4A" stroke-width="4"/>
<path d="M449.46 132.211L480.551 143.528" stroke="#394E4A" stroke-width="4"/>
<path d="M451.572 72.3672L480.226 88.9112" stroke="#394E4A" stroke-width="4"/>
<path d="M379.85 69.4375L405.196 90.706" stroke="#394E4A" stroke-width="4"/>
<path d="M308.675 67.582L329.943 92.9289" stroke="#394E4A" stroke-width="4"/>
<path d="M237.947 66.8008L254.49 95.4558" stroke="#394E4A" stroke-width="4"/>
<path d="M167.558 66.0391L178.874 97.1316" stroke="#394E4A" stroke-width="4"/>
<path d="M97.3674 65.3008L103.113 97.8861" stroke="#394E4A" stroke-width="4"/>
<path d="M27.2603 65.6016V98.6896" stroke="#394E4A" stroke-width="4"/>
<path d="M670.712 80.4062H703.797" stroke="#394E4A" stroke-width="4"/>
<path d="M596.947 77.3281L629.531 83.0738" stroke="#394E4A" stroke-width="4"/>
<path d="M523.911 74.3047L555.002 85.6215" stroke="#394E4A" stroke-width="4"/>
<path d="M526.011 14.4648L554.665 31.0089" stroke="#394E4A" stroke-width="4"/>
<path d="M454.299 11.5352L479.645 32.8037" stroke="#394E4A" stroke-width="4"/>
<path d="M383.125 9.67969L404.392 35.0265" stroke="#394E4A" stroke-width="4"/>
<path d="M312.398 8.89453L328.941 37.5496" stroke="#394E4A" stroke-width="4"/>
<path d="M241.998 8.13672L253.315 39.2293" stroke="#394E4A" stroke-width="4"/>
<path d="M171.808 7.39453L177.553 39.9798" stroke="#394E4A" stroke-width="4"/>
<path d="M101.7 7.69531V40.7832" stroke="#394E4A" stroke-width="4"/>
<path d="M31.5403 8L25.7949 40.5853" stroke="#394E4A" stroke-width="4"/>
<path d="M671.386 19.4258L703.97 25.1715" stroke="#394E4A" stroke-width="4"/>
<path d="M598.35 16.4023L629.441 27.7191" stroke="#394E4A" stroke-width="4"/>
</g>
</g>
<defs>
<clipPath id="clip0_2377_472">
<rect width="722" height="740" fill="white"/>
</clipPath>
<clipPath id="clip1_2377_472">
<rect width="722" height="929" fill="white" transform="translate(-5 -17)"/>
</clipPath>
</defs>
</svg>
